<svg xmlns="http://www.w3.org/2000/svg" data-name="Layer 1" viewBox="0 0 128 160" x="0px" y="0px"><title>185 Web Icon Set 129 expanded</title><path d="M68.11041,101.2959a1.99017,1.99017,0,1,0-3.98029,0A17.01425,17.01425,0,0,0,81.08337,118.333a2,2,0,0,0,0-4A13.02017,13.02017,0,0,1,68.11041,101.2959Z"/><path d="M81.23108,38a4.97543,4.97543,0,1,0,4.97534-5A4.9936,4.9936,0,0,0,81.23108,38Zm5.97046,0a.9951.9951,0,1,1-.99512-1A.99824.99824,0,0,1,87.20154,38Z"/><path d="M9.55054,88.28516l.14288,7.63477a1.98925,1.98925,0,0,0,3.37006,1.4043l5.47778-5.29883L24.019,97.32422a1.98921,1.98921,0,0,0,3.37-1.4043l.14288-7.63477,7.59717-.14355a2.00179,2.00179,0,0,0,1.3974-3.38672l-3.354-3.50165a20.36721,20.36721,0,0,0,4.43555.51044c9.16461,0,17.15338-6.63574,22.86926-19.19141a12.34989,12.34989,0,0,1,10.74329-7.40839l-2.429,3.62909a1.9996,1.9996,0,0,0,1.65,3.11621,1.94207,1.94207,0,0,0,.21283-.01172l9.7453-1.04773A15.171,15.171,0,0,1,81.472,66H72.16461a1.99521,1.99521,0,0,0-1.99017,2v5.7373a28.7095,28.7095,0,1,0,26.09357,0V68a1.99521,1.99521,0,0,0-1.99017-2H85.46527a19.09317,19.09317,0,0,0-.98285-5.58917L85.188,60.335a1.98374,1.98374,0,0,0,1.42651-.85352l9.01593-13.15039c4.0979-.167,19.10858-1.2959,31.42365-8.92773a2.005,2.005,0,0,0,.64911-2.752,1.9829,1.9829,0,0,0-2.7384-.65234c-13.12933,8.13672-30.24194,8.35938-30.413,8.36035a1.98844,1.98844,0,0,0-1.62476.86523L83.85577,56.45605l-9.37842,1.00781L82.24463,45.8584a2.00742,2.00742,0,0,0-.18854-2.47266l-2.959-3.22266a1.97928,1.97928,0,0,0-2.25543-.47754L63.33331,45.58594l2.39923-8.9375L81.647,29.47559a2.006,2.006,0,0,0,1.17584-1.78809A43.62692,43.62692,0,0,1,89.77765,6.87793a2.00474,2.00474,0,0,0-.55487-2.77246,1.98217,1.98217,0,0,0-2.75885.55762,47.68423,47.68423,0,0,0-7.54761,21.65918l-15.6734,7.06445a1.998,1.998,0,0,0-1.10681,1.30371L58.41327,48.55566a2.00548,2.00548,0,0,0,.621,2.03516,1.9835,1.9835,0,0,0,2.09314.32031l16.00385-6.99121.93384,1.01758-4.28125,6.39661c-.19946-.03088-.38739-.0733-.595-.09583A16.17948,16.17948,0,0,0,56.85846,60.9082C52.68091,70.082,45.19257,80.35645,33.273,77.1709c-.00806-.00214-.01611-.00177-.02417-.00378l3.27765-3.422a2.00179,2.00179,0,0,0-1.3974-3.38672l-7.59717-.14355L27.389,62.58008a1.98921,1.98921,0,0,0-3.37-1.4043l-5.47778,5.29883-5.47778-5.29883a1.98925,1.98925,0,0,0-3.37006,1.4043l-.14288,7.63477-7.59717.14355A2.00175,2.00175,0,0,0,.556,73.74512L5.82874,79.25.556,84.75488A2.00175,2.00175,0,0,0,1.95337,88.1416ZM92.28766,70v4.99707a2.001,2.001,0,0,0,1.17194,1.82324,24.7292,24.7292,0,1,1-20.47681,0,2.00092,2.00092,0,0,0,1.17194-1.82324V70ZM10.02478,77.86328l-3.44-3.59082,4.95691-.09375a1.99693,1.99693,0,0,0,1.95325-1.96289l.09326-4.98145,3.57312,3.457a1.985,1.985,0,0,0,2.75983,0l3.57312-3.457.09332,4.98145a1.99683,1.99683,0,0,0,1.95319,1.96289l4.95691.09375-3.44,3.59082a2.00707,2.00707,0,0,0,0,2.77344l3.44,3.59082-4.95691.09375a1.99683,1.99683,0,0,0-1.95319,1.96289l-.09332,4.98145-3.57312-3.457a1.98372,1.98372,0,0,0-2.75983,0l-3.57312,3.457-.09326-4.98145a1.99693,1.99693,0,0,0-1.95325-1.96289l-4.95691-.09375,3.44-3.59082A2.00707,2.00707,0,0,0,10.02478,77.86328Z"/><path d="M94.06891,36.17383c.02625,0,.05347-.001.08063-.002.7337-.0293,18.11157-.83105,30.416-9.56445a2.00831,2.00831,0,0,0,.47711-2.78809,1.98644,1.98644,0,0,0-2.77435-.47949C112.39136,30.35059,98.367,31.84766,94.824,32.12109l-2.49548-2.44238c.91248-11.9209,12.54242-26.26074,12.662-26.4082a2.006,2.006,0,0,0-.27209-2.81445,1.98261,1.98261,0,0,0-2.8006.27246c-.53839.65723-13.18286,16.2373-13.61432,29.68457a2.00735,2.00735,0,0,0,.60059,1.49707l3.77625,3.69629A1.98527,1.98527,0,0,0,94.06891,36.17383Z"/><text x="0" y="143" fill="#000000" font-size="5px" font-weight="bold" font-family="'Helvetica Neue', Helvetica, Arial-Unicode, Arial, Sans-serif">Created by Creative Mahira</text><text x="0" y="148" fill="#000000" font-size="5px" font-weight="bold" font-family="'Helvetica Neue', Helvetica, Arial-Unicode, Arial, Sans-serif">from the Noun Project</text></svg>