<svg xmlns="http://www.w3.org/2000/svg" xmlns:xlink="http://www.w3.org/1999/xlink" version="1.1" x="0px" y="0px" viewBox="0 0 100 125" enable-background="new 0 0 100 100" xml:space="preserve"><g><path fill="#000000" d="M12.151,32.306c-3.802,1.071-6.016,5.022-4.944,8.825c1.071,3.802,5.021,6.016,8.824,4.944l16.884-4.757   l-3.042-14.005L12.151,32.306z"/><path fill="#000000" d="M45.037,43.188l-0.852,5.463l14.263,2.129c0,0,2.022-11.284,4.045-15.222   c2.022-3.938,10.857-19.372,10.857-19.372l-1.703-1.703L64.9,19.866c0.879,1.3,1.01,2.794,0.205,3.706   c-0.843,0.953-2.445,0.97-3.896,0.151L59.3,26.406c0,0,0.319,6.173-7.557,9.579l-4.098-3.525c0,0,1.863-6.799,8.888-8.502   l2.588-2.348c-0.637-1.189-0.662-2.466,0.057-3.278c0.751-0.851,2.106-0.954,3.421-0.386l5.323-6.654l-1.916-1.916   c0,0-18.414,12.879-23.204,14.263c-4.79,1.384-9.887,3.086-9.887,3.086l2.756,13.731l5.109-1.064L45.037,43.188z"/><path fill="#000000" d="M79.206,42.911c-0.057,0-0.116,0-0.174,0.001c-12.27,0.11-16.42,14.692-18.65,22.524l-0.183,0.642   c-0.266,0.928-0.542,2.108-0.861,3.477c-1.034,4.418-3.783,16.156-7.517,15.53c-3.602-0.601-4.079-5.224-4.088-7.54   c2.937-0.359,5.459-2.523,6.121-5.579l3.962-18.279l-14.248-1.797l-3.694,17.047c-0.593,2.736,0.471,5.439,2.511,7.084   c-0.391,4.623,0.897,13.108,8.549,14.383c0.449,0.075,0.883,0.111,1.302,0.111c7.734,0,10.603-12.255,12.352-19.731   c0.304-1.299,0.567-2.421,0.796-3.223l0.185-0.647c2.553-8.967,5.913-18.54,13.512-18.608c0.042,0,0.084,0,0.126,0   c7.913,0,9.69,6.806,9.863,7.569l5.273-1.126C93.466,50.637,89.176,42.911,79.206,42.911z"/></g><text x="0" y="115" fill="#000000" font-size="5px" font-weight="bold" font-family="'Helvetica Neue', Helvetica, Arial-Unicode, Arial, Sans-serif">Created by Murat Mustafa</text><text x="0" y="120" fill="#000000" font-size="5px" font-weight="bold" font-family="'Helvetica Neue', Helvetica, Arial-Unicode, Arial, Sans-serif">from the Noun Project</text></svg>